<svg width="24" height="24" viewBox="0 0 20 24" fill="none" xmlns="http://www.w3.org/2000/svg" aria-hidden="true">
  <path d="M16.365 12.682c-.033-3.259 2.658-4.824 2.777-4.905-1.511-2.208-3.864-2.509-4.699-2.543-1.998-.203-3.897 1.177-4.908 1.177-1.028 0-2.585-1.153-4.251-1.121-2.188.033-4.204 1.272-5.329 3.232-2.274 3.948-1.581 9.798 1.632 13.001 1.083 1.045 2.371 2.217 4.061 2.174 1.632-.066 2.247-1.055 4.218-1.055 1.971 0 2.536 1.055 4.267 1.022 1.762-.033 2.878-1.048 3.953-2.099 1.245-1.214 1.757-2.39 1.785-2.451-.039-.017-3.428-1.315-3.465-5.222l-.001-.098zm-3.127-9.431c.892-1.081 1.493-2.585 1.328-4.085-1.285.052-2.839.857-3.759 1.938-.826.953-1.549 2.475-1.355 3.936 1.434.111 2.901-.729 3.786-1.789z" fill="white"/>
</svg>
